HIERARCHY
ROOT Root
{
  OFFSET 0.0 0.0 0.0
  CHANNELS 6 Xposition Yposition Zposition Zrotation Yrotation Xrotation
  JOINT Hips
  {
    OFFSET 0.0 100.0 0.0
    CHANNELS 6 Xposition Yposition Zposition Zrotation Yrotation Xrotation
    JOINT Spine1
    {
      OFFSET 5.003913 -0.037094 -0.013727
      CHANNELS 3 Zrotation Yrotation Xrotation
      JOINT Spine2
      {
        OFFSET 7.125363 -1e-06 0.0
        CHANNELS 3 Zrotation Yrotation Xrotation
        JOINT Chest
        {
          OFFSET 7.594027 1e-06 0.0
          CHANNELS 3 Zrotation Yrotation Xrotation
          JOINT Neck1
          {
            OFFSET 26.313086 -0.460272 -0.181672
            CHANNELS 3 Zrotation Yrotation Xrotation
            JOINT Neck2
            {
              OFFSET 8.045911 0.0 0.0
              CHANNELS 3 Zrotation Yrotation Xrotation
              JOINT Head
              {
                OFFSET 6.432774 0.0 0.0
                CHANNELS 3 Zrotation Yrotation Xrotation
                JOINT HeadEnd
                {
                  OFFSET 16.169773 0.06451 0.00362
                  CHANNELS 3 Zrotation Yrotation Xrotation
                }
                JOINT Jaw
                {
                  OFFSET 0.108741 3.12938 0.002639
                  CHANNELS 3 Zrotation Yrotation Xrotation
                }
                JOINT LeftEye
                {
                  OFFSET 4.45173 8.166359 3.206392
                  CHANNELS 3 Zrotation Yrotation Xrotation
                }
                JOINT RightEye
                {
                  OFFSET 4.436895 8.135758 -3.222429
                  CHANNELS 3 Zrotation Yrotation Xrotation
                }
              }
            }
          }
          JOINT LeftShoulder
          {
            OFFSET 23.218927 5.195579 1.621656
            CHANNELS 3 Zrotation Yrotation Xrotation
            JOINT LeftArm
            {
              OFFSET 15.902118 2e-06 -2e-06
              CHANNELS 3 Zrotation Yrotation Xrotation
              JOINT LeftForeArm
              {
                OFFSET 28.739307 0.0 -1e-06
                CHANNELS 3 Zrotation Yrotation Xrotation
                JOINT LeftHand
                {
                  OFFSET 27.093981 -4e-06 0.0
                  CHANNELS 3 Zrotation Yrotation Xrotation
                  JOINT LeftHandThumb1
                  {
                    OFFSET 2.276781 3.380274 0.83384
                    CHANNELS 3 Zrotation Yrotation Xrotation
                    JOINT LeftHandThumb2
                    {
                      OFFSET 4.705309 -1e-06 -1e-06
                      CHANNELS 3 Zrotation Yrotation Xrotation
                      JOINT LeftHandThumb3
                      {
                        OFFSET 2.798515 0.0 3e-06
                        CHANNELS 3 Zrotation Yrotation Xrotation
                        JOINT LeftHandThumbEnd
                        {
                          OFFSET 3.180793 4e-06 -4e-06
                          CHANNELS 3 Zrotation Yrotation Xrotation
                        }
                      }
                    }
                  }
                  JOINT LeftHandIndex1
                  {
                    OFFSET 3.247786 2.352677 0.137192
                    CHANNELS 3 Zrotation Yrotation Xrotation
                    JOINT LeftHandIndex2
                    {
                      OFFSET 6.367095 1e-06 0.0
                      CHANNELS 3 Zrotation Yrotation Xrotation
                      JOINT LeftHandIndex3
                      {
                        OFFSET 3.662364 0.0 0.0
                        CHANNELS 3 Zrotation Yrotation Xrotation
                        JOINT LeftHandIndex4
                        {
                          OFFSET 2.329242 4e-06 -4e-06
                          CHANNELS 3 Zrotation Yrotation Xrotation
                          JOINT LeftHandIndexEnd
                          {
                            OFFSET 2.767823 1e-06 0.0
                            CHANNELS 3 Zrotation Yrotation Xrotation
                          }
                        }
                      }
                    }
                  }
                  JOINT LeftHandMiddle1
                  {
                    OFFSET 3.163612 0.945023 -0.406112
                    CHANNELS 3 Zrotation Yrotation Xrotation
                    JOINT LeftHandMiddle2
                    {
                      OFFSET 6.276789 3e-06 0.0
                      CHANNELS 3 Zrotation Yrotation Xrotation
                      JOINT LeftHandMiddle3
                      {
                        OFFSET 4.35652 -1e-06 4e-06
                        CHANNELS 3 Zrotation Yrotation Xrotation
                        JOINT LeftHandMiddle4
                        {
                          OFFSET 2.996877 0.0 8e-06
                          CHANNELS 3 Zrotation Yrotation Xrotation
                          JOINT LeftHandMiddleEnd
                          {
                            OFFSET 2.323256 3e-06 -4e-06
                            CHANNELS 3 Zrotation Yrotation Xrotation
                          }
                        }
                      }
                    }
                  }
                  JOINT LeftHandRing1
                  {
                    OFFSET 2.882606 -0.309162 0.107445
                    CHANNELS 3 Zrotation Yrotation Xrotation
                    JOINT LeftHandRing2
                    {
                      OFFSET 6.033198 0.0 4e-06
                      CHANNELS 3 Zrotation Yrotation Xrotation
                      JOINT LeftHandRing3
                      {
                        OFFSET 4.350578 3e-06 0.0
                        CHANNELS 3 Zrotation Yrotation Xrotation
                        JOINT LeftHandRing4
                        {
                          OFFSET 2.651321 2e-06 -7e-06
                          CHANNELS 3 Zrotation Yrotation Xrotation
                          JOINT LeftHandRingEnd
                          {
                            OFFSET 1.937663 1e-06 -4e-06
                            CHANNELS 3 Zrotation Yrotation Xrotation
                          }
                        }
                      }
                    }
                  }
                  JOINT LeftHandPinky1
                  {
                    OFFSET 2.865315 -1.525436 0.575687
                    CHANNELS 3 Zrotation Yrotation Xrotation
                    JOINT LeftHandPinky2
                    {
                      OFFSET 5.54936 1e-06 -8e-06
                      CHANNELS 3 Zrotation Yrotation Xrotation
                      JOINT LeftHandPinky3
                      {
                        OFFSET 3.070974 0.0 -4e-06
                        CHANNELS 3 Zrotation Yrotation Xrotation
                        JOINT LeftHandPinky4
                        {
                          OFFSET 1.549672 1e-06 0.0
                          CHANNELS 3 Zrotation Yrotation Xrotation
                          JOINT LeftHandPinkyEnd
                          {
                            OFFSET 1.952123 0.0 0.0
                            CHANNELS 3 Zrotation Yrotation Xrotation
                          }
                        }
                      }
                    }
                  }
                }
              }
            }
          }
          JOINT RightShoulder
          {
            OFFSET 23.161716 5.296122 -1.380114
            CHANNELS 3 Zrotation Yrotation Xrotation
            JOINT RightArm
            {
              OFFSET -16.027195 -2e-06 1.1e-05
              CHANNELS 3 Zrotation Yrotation Xrotation
              JOINT RightForeArm
              {
                OFFSET -28.736639 4e-06 2e-06
                CHANNELS 3 Zrotation Yrotation Xrotation
                JOINT RightHand
                {
                  OFFSET -27.133619 6e-06 0.0
                  CHANNELS 3 Zrotation Yrotation Xrotation
                  JOINT RightHandThumb1
                  {
                    OFFSET -2.274328 -3.351035 -0.83067
                    CHANNELS 3 Zrotation Yrotation Xrotation
                    JOINT RightHandThumb2
                    {
                      OFFSET -4.703594 -3e-06 2e-06
                      CHANNELS 3 Zrotation Yrotation Xrotation
                      JOINT RightHandThumb3
                      {
                        OFFSET -2.794935 -4e-06 -3e-06
                        CHANNELS 3 Zrotation Yrotation Xrotation
                        JOINT RightHandThumbEnd
                        {
                          OFFSET -3.183852 4e-06 1e-06
                          CHANNELS 3 Zrotation Yrotation Xrotation
                        }
                      }
                    }
                  }
                  JOINT RightHandIndex1
                  {
                    OFFSET -3.253496 -2.33755 -0.127667
                    CHANNELS 3 Zrotation Yrotation Xrotation
                    JOINT RightHandIndex2
                    {
                      OFFSET -6.344434 0.0 0.0
                      CHANNELS 3 Zrotation Yrotation Xrotation
                      JOINT RightHandIndex3
                      {
                        OFFSET -3.654871 0.0 -8e-06
                        CHANNELS 3 Zrotation Yrotation Xrotation
                        JOINT RightHandIndex4
                        {
                          OFFSET -2.327586 -1e-06 0.0
                          CHANNELS 3 Zrotation Yrotation Xrotation
                          JOINT RightHandIndexEnd
                          {
                            OFFSET -2.770001 3e-06 8e-06
                            CHANNELS 3 Zrotation Yrotation Xrotation
                          }
                        }
                      }
                    }
                  }
                  JOINT RightHandMiddle1
                  {
                    OFFSET -3.168223 -0.944764 0.411762
                    CHANNELS 3 Zrotation Yrotation Xrotation
                    JOINT RightHandMiddle2
                    {
                      OFFSET -6.266691 -1e-06 -4e-06
                      CHANNELS 3 Zrotation Yrotation Xrotation
                      JOINT RightHandMiddle3
                      {
                        OFFSET -4.348901 0.0 0.0
                        CHANNELS 3 Zrotation Yrotation Xrotation
                        JOINT RightHandMiddle4
                        {
                          OFFSET -3.00024 2e-06 -4e-06
                          CHANNELS 3 Zrotation Yrotation Xrotation
                          JOINT RightHandMiddleEnd
                          {
                            OFFSET -2.321477 -4e-06 -4e-06
                            CHANNELS 3 Zrotation Yrotation Xrotation
                          }
                        }
                      }
                    }
                  }
                  JOINT RightHandRing1
                  {
                    OFFSET -2.885654 0.293261 -0.119232
                    CHANNELS 3 Zrotation Yrotation Xrotation
                    JOINT RightHandRing2
                    {
                      OFFSET -6.032835 -1e-06 -4e-06
                      CHANNELS 3 Zrotation Yrotation Xrotation
                      JOINT RightHandRing3
                      {
                        OFFSET -4.33881 0.0 -4e-06
                        CHANNELS 3 Zrotation Yrotation Xrotation
                        JOINT RightHandRing4
                        {
                          OFFSET -2.654903 -4e-06 -4e-06
                          CHANNELS 3 Zrotation Yrotation Xrotation
                          JOINT RightHandRingEnd
                          {
                            OFFSET -1.935122 0.0 4e-06
                            CHANNELS 3 Zrotation Yrotation Xrotation
                          }
                        }
                      }
                    }
                  }
                  JOINT RightHandPinky1
                  {
                    OFFSET -2.866241 1.503904 -0.60527
                    CHANNELS 3 Zrotation Yrotation Xrotation
                    JOINT RightHandPinky2
                    {
                      OFFSET -5.553177 -2e-06 0.0
                      CHANNELS 3 Zrotation Yrotation Xrotation
                      JOINT RightHandPinky3
                      {
                        OFFSET -3.062664 -1e-06 -4e-06
                        CHANNELS 3 Zrotation Yrotation Xrotation
                        JOINT RightHandPinky4
                        {
                          OFFSET -1.546529 2e-06 4e-06
                          CHANNELS 3 Zrotation Yrotation Xrotation
                          JOINT RightHandPinkyEnd
                          {
                            OFFSET -1.952341 0.0 -4e-06
                            CHANNELS 3 Zrotation Yrotation Xrotation
                          }
                        }
                      }
                    }
                  }
                }
              }
            }
          }
        }
      }
    }
    JOINT LeftLeg
    {
      OFFSET -8.443107 2.567604 10.043214
      CHANNELS 3 Zrotation Yrotation Xrotation
      JOINT LeftShin
      {
        OFFSET 43.229198 1e-06 -1e-06
        CHANNELS 3 Zrotation Yrotation Xrotation
        JOINT LeftFoot
        {
          OFFSET 42.298611 1e-06 1e-06
          CHANNELS 3 Zrotation Yrotation Xrotation
          JOINT LeftToeBase
          {
            OFFSET 14.165858 1e-06 0.0
            CHANNELS 3 Zrotation Yrotation Xrotation
            JOINT LeftToeEnd
            {
              OFFSET 6.7141 -0.234461 0.0
              CHANNELS 3 Zrotation Yrotation Xrotation
            }
          }
        }
      }
    }
    JOINT RightLeg
    {
      OFFSET -8.303923 2.592729 -10.047278
      CHANNELS 3 Zrotation Yrotation Xrotation
      JOINT RightShin
      {
        OFFSET -43.369682 0.0 1e-06
        CHANNELS 3 Zrotation Yrotation Xrotation
        JOINT RightFoot
        {
          OFFSET -42.260784 4e-06 2e-06
          CHANNELS 3 Zrotation Yrotation Xrotation
          JOINT RightToeBase
          {
            OFFSET -14.222245 -2e-06 -1e-06
            CHANNELS 3 Zrotation Yrotation Xrotation
            JOINT RightToeEnd
            {
              OFFSET -6.660062 0.232574 -2e-06
              CHANNELS 3 Zrotation Yrotation Xrotation
            }
          }
        }
      }
    }
  }
}
MOTION
Frames: 5
Frame Time: 0.03333333333333333
0.0 0.0 0.0 0.0 -0.0 0.0 -2.570267 98.546295 197.989166 90.037949 7.162439 90.21608 4.175702 1.92206 0.317692 -10.382394 -0.273193 0.620001 29.976837 -0.726318 -0.604253 58.630562 -5.451032 1.607301 -2.566697 -0.789137 -0.909277 -23.434227 -2.850132 -0.744633 5e-06 0.0 -0.0 -0.099229 0.000647 0.006407 -0.017904 0.03259 0.032401 -0.066072 -0.039984 -0.005942 -103.239464 -80.006668 126.886627 55.553486 -50.520061 -15.284154 43.098377 -0.271109 0.117228 -2.035617 13.27397 -10.497411 17.636639 -26.322737 52.411194 -19.466665 -14.395602 29.410389 -1e-06 -8.774822 -2e-06 15.533543 -18.053091 6.277778 -0.609776 -1.795653 -3.889329 -4.807088 -11.046812 -2.93785 5e-06 -20.976021 2e-06 -5.01997 -25.03356 -4.031878 6e-06 -0.0 -2e-06 -10.634535 -5.68697 -3.565587 10.573277 -17.922953 -3.113904 4e-06 -13.821213 4e-06 -0.50178 -31.181507 -4.027008 -11.563422 -59.409107 7.545686 -13.982716 -7.150198 -2.875043 13.772731 -8.401494 -3.218241 0.347736 -34.211559 0.771653 -0.963027 -17.733376 2.621022 0.0 -0.0 -2e-06 -17.346422 -20.095219 -4.20178 21.757561 -1.638376 3.866427 2e-06 -6.338826 1e-06 -1.69759 -22.591745 -6.194005 -2e-06 -3e-06 -3e-06 113.026016 -87.470985 93.588303 78.097298 -45.518646 -12.332136 25.941206 -0.13471 0.155776 3.120519 0.418044 9.540045 22.182114 -20.375893 49.933323 -16.701817 -16.743526 28.47653 -3e-06 -12.690601 -1e-06 16.141872 -18.148163 3.142569 -0.10592 -1.513857 -4.275883 -5.039041 -5.612873 -2.953556 4e-06 -11.020527 -2e-06 -6.111297 -15.895336 -3.840472 -1e-06 -0.0 2e-06 -10.28337 -5.68029 -4.341839 11.028294 -11.302407 -2.372633 -1.384268 -14.238583 -6.320124 -0.625438 -26.924194 -3.827604 -4.757061 -50.414268 -3.292161 -13.708522 -7.363478 -3.720939 18.14115 -14.052739 -3.242676 7e-06 -18.78727 -3e-06 -0.429714 -8.456046 2.555504 -1e-06 2e-06 -0.0 -15.923536 -20.09449 -5.473583 30.419214 -7.190826 1.735924 3e-06 -8.162927 -1e-06 -1.861902 -22.861471 -6.167945 -1e-06 -2e-06 -1e-06 166.05603 -1.321602 -13.322927 2.915869 0.135397 -0.387321 -68.544601 -3.836454 -14.551006 -8.573007 1.736722 1.990899 -1.0 1e-06 0.0 15.999858 5.020829 -3.009123 6.287671 0.107219 -0.306386 -83.548836 -1.520575 -2.645238 -5.415127 0.683897 1.701219 -1.000002 -0.0 0.0 
0.0 0.0 0.0 0.0 -0.0 0.0 -2.303121 98.13961 200.446945 89.883301 7.009465 89.795525 3.97614 1.913791 0.40378 -10.398453 -0.198079 0.720668 30.063511 -0.55291 -0.645671 58.551476 -5.731394 1.6053 -2.559861 -0.852854 -0.911631 -23.809513 -2.935708 -0.607231 8e-06 0.0 0.0 -0.100299 -0.003067 0.0143 0.028385 0.022383 0.050735 -0.013945 -0.037982 -0.008297 -104.465378 -79.787468 128.04628 55.514545 -50.686275 -15.53157 42.451004 -0.401153 0.070397 -1.957735 13.569752 -11.002364 17.636631 -26.322729 52.411186 -19.466665 -14.395598 29.410393 -2e-06 -8.774822 -2e-06 15.536386 -18.044167 6.273366 -0.609774 -1.795654 -3.88933 -4.807088 -11.046811 -2.93785 7e-06 -20.976019 1e-06 -5.019966 -25.033556 -4.03188 5e-06 -0.0 0.0 -10.634535 -5.686969 -3.565588 10.573275 -17.922951 -3.113905 2e-06 -13.821209 2e-06 -0.501774 -31.181505 -4.027016 -11.492611 -59.440125 7.534365 -13.982715 -7.150197 -2.875044 13.77273 -8.401493 -3.218242 0.347736 -34.211552 0.771657 -0.963025 -17.73337 2.621018 0.0 -1e-06 -1e-06 -17.34642 -20.095217 -4.201782 21.757563 -1.638376 3.866426 1e-06 -6.338825 1e-06 -1.69759 -22.591743 -6.194008 -0.0 -2e-06 -3e-06 112.17765 -87.484947 94.583168 77.95005 -45.799644 -13.174299 25.465231 -0.064877 0.146993 3.210449 0.709988 9.232543 22.182116 -20.375893 49.933319 -16.701811 -16.74353 28.476532 -4e-06 -12.690601 -1e-06 16.190952 -18.111887 3.127092 -0.105919 -1.513856 -4.275881 -5.039041 -5.612871 -2.953555 3e-06 -11.020525 0.0 -6.111298 -15.895334 -3.84047 -0.0 1e-06 -1e-06 -10.283371 -5.680288 -4.341837 11.028296 -11.302404 -2.372632 -1.384269 -14.238579 -6.32012 -0.625439 -26.924183 -3.827601 -4.724517 -50.469883 -3.322295 -13.708525 -7.363476 -3.720937 18.141151 -14.052739 -3.242675 6e-06 -18.78727 -2e-06 -0.429711 -8.456044 2.555502 1e-06 1e-06 -0.0 -15.923536 -20.094482 -5.473583 30.41921 -7.190823 1.735924 1e-06 -8.162925 1e-06 -1.861904 -22.861469 -6.167942 -0.0 -2e-06 -1e-06 165.337173 -0.833067 -13.356967 4.012262 0.104387 -0.449864 -67.612122 -3.614575 -14.734764 -8.443907 1.678285 2.005777 -0.999999 -1e-06 -0.0 17.372984 4.868213 -3.020121 6.492255 0.120246 -0.316226 -84.787933 -0.998022 -3.036457 -5.491433 0.724605 1.709924 -1.000002 -0.0 0.0 
0.0 0.0 0.0 0.0 -0.0 0.0 -1.919194 97.816536 203.089661 90.121338 6.604892 89.307091 3.593969 1.657922 0.461725 -10.475476 -0.132236 0.891383 30.10285 -0.549621 -0.708992 58.441994 -6.037402 1.639999 -2.586701 -0.85007 -0.907804 -24.043678 -3.05825 -0.359853 6e-06 -0.0 0.0 -0.106036 0.006923 0.01162 0.022198 0.034834 0.049187 -0.020888 -0.029956 -0.012326 -106.88813 -79.53257 130.388474 55.017464 -50.80172 -15.507544 41.434078 -0.562526 -0.011258 -1.921759 13.563788 -11.893663 17.636629 -26.322733 52.411198 -19.46666 -14.395597 29.410393 -0.0 -8.774822 -2e-06 15.542772 -18.027451 6.268845 -0.609775 -1.795654 -3.889328 -4.807089 -11.046811 -2.937849 2e-06 -20.976017 1e-06 -5.01997 -25.033558 -4.03188 5e-06 1e-06 -0.0 -10.634537 -5.686973 -3.565589 10.573272 -17.922951 -3.113902 2e-06 -13.82121 3e-06 -0.501778 -31.181505 -4.027017 -11.337625 -59.388927 7.42152 -13.982714 -7.150199 -2.875041 13.772729 -8.401491 -3.218241 0.34773 -34.211555 0.771655 -0.963028 -17.733372 2.621021 0.0 -0.0 -2e-06 -17.34642 -20.095219 -4.201783 21.757559 -1.638374 3.866429 0.0 -6.338824 0.0 -1.697591 -22.591743 -6.194008 -1e-06 -2e-06 -2e-06 107.154907 -87.435928 99.695175 77.608055 -46.143848 -13.946923 24.809435 -0.036129 0.159158 3.305651 1.024782 8.959272 22.182117 -20.375904 49.933331 -16.701813 -16.74353 28.476532 -4e-06 -12.690602 2e-06 16.177534 -18.032028 3.11046 -0.105917 -1.513856 -4.275882 -5.03904 -5.612869 -2.953557 4e-06 -11.02052 -1e-06 -6.111296 -15.89533 -3.84047 -0.0 -0.0 -1e-06 -10.283371 -5.680288 -4.34184 11.028295 -11.302406 -2.372631 -1.384267 -14.238579 -6.320123 -0.625439 -26.924187 -3.827599 -4.633444 -50.480152 -3.374017 -13.708525 -7.363475 -3.720938 18.14115 -14.052739 -3.242674 7e-06 -18.78727 -1e-06 -0.429713 -8.456041 2.555505 2e-06 1e-06 0.0 -15.923534 -20.094482 -5.473588 30.419218 -7.190827 1.735925 3e-06 -8.162927 0.0 -1.861903 -22.861467 -6.167938 1e-06 -3e-06 -2e-06 164.942047 -0.021209 -12.798472 5.668273 0.056537 -0.507197 -65.82515 -3.936521 -13.417876 -8.229338 1.588704 2.049341 -0.999999 1e-06 1e-06 18.380957 4.170778 -3.036674 7.118623 0.158858 -0.326285 -85.671417 -0.400966 -3.718268 -5.846862 0.778699 1.721988 -1.000002 -0.0 -0.0 
0.0 0.0 0.0 0.0 -0.0 0.0 -1.442141 97.680084 205.902054 90.834518 5.966971 88.739082 3.11812 1.133911 0.460752 -10.62079 -0.116706 1.160593 30.169449 -0.737114 -0.769121 58.245804 -6.303911 1.732855 -2.53668 -0.804172 -0.88764 -24.147017 -3.304784 -0.105312 6e-06 0.0 -0.0 -0.09658 0.006664 0.026378 0.003377 0.04442 0.05416 -0.047567 -0.037815 0.011635 -110.299629 -79.283371 133.693878 54.313087 -50.763344 -15.281406 39.973644 -0.674781 -0.091556 -2.023595 13.206634 -13.113018 17.636627 -26.322725 52.41119 -19.466663 -14.395597 29.410389 -0.0 -8.774822 0.0 15.559179 -17.950212 6.211169 -0.609776 -1.795655 -3.889327 -4.807087 -11.04681 -2.937852 5e-06 -20.976017 -1e-06 -5.019968 -25.033556 -4.031883 6e-06 -0.0 1e-06 -10.634535 -5.686971 -3.565587 10.573274 -17.922953 -3.113904 4e-06 -13.82121 1e-06 -0.501773 -31.181507 -4.027019 -11.125277 -59.298733 7.193043 -13.982714 -7.150198 -2.875042 13.772731 -8.401491 -3.218243 0.347735 -34.211544 0.771652 -0.963025 -17.73337 2.621017 0.0 1e-06 -1e-06 -17.34642 -20.095219 -4.201783 21.757557 -1.638375 3.866426 1e-06 -6.338824 1e-06 -1.697588 -22.591743 -6.19401 -0.0 -2e-06 -2e-06 98.164787 -87.393005 108.71405 76.95787 -46.476448 -14.521727 24.105476 -0.037137 0.180536 3.334067 1.394153 8.662083 22.182112 -20.375887 49.9333 -16.701817 -16.74353 28.476532 -3e-06 -12.6906 -0.0 15.984104 -17.93902 3.12605 -0.10592 -1.513856 -4.275881 -5.03904 -5.612871 -2.953555 4e-06 -11.020523 -3e-06 -6.111297 -15.895332 -3.840471 0.0 -0.0 -1e-06 -10.283367 -5.680288 -4.341837 11.028293 -11.302402 -2.372634 -1.384268 -14.238579 -6.320122 -0.625436 -26.924187 -3.827605 -4.650225 -50.424656 -3.278774 -13.708522 -7.363477 -3.720938 18.141148 -14.052737 -3.242676 5e-06 -18.78727 -4e-06 -0.429712 -8.456041 2.555504 1e-06 1e-06 -1e-06 -15.923532 -20.094482 -5.473585 30.419205 -7.190823 1.735924 2e-06 -8.162924 -1e-06 -1.861899 -22.861465 -6.167943 -1e-06 -2e-06 -1e-06 164.569672 1.162863 -11.873124 7.573514 0.046702 -0.520017 -62.208591 -5.40903 -10.064677 -7.679583 1.468378 2.105217 -0.999999 0.0 0.0 18.78252 2.871338 -3.30332 8.542524 0.173676 -0.361715 -86.155075 0.503953 -4.862374 -6.626232 0.809825 1.728491 -1.000002 -1e-06 1e-06 
0.0 0.0 0.0 0.0 -0.0 0.0 -0.93055 97.651672 208.682037 91.662437 5.39829 88.278816 2.750787 0.625049 0.485442 -10.743288 -0.142903 1.256725 30.220585 -1.049384 -0.795894 58.074818 -6.675248 1.785576 -2.585801 -0.745874 -0.8829 -24.113743 -3.510508 0.02876 6e-06 -1e-06 -0.0 -0.107927 0.03876 0.007073 0.007377 0.070075 0.042276 -0.048328 0.002048 -0.014958 -113.280983 -79.131912 136.654495 53.748474 -50.733032 -15.284392 38.326492 -0.717708 -0.08889 -2.203207 12.791817 -14.284406 17.636618 -26.322741 52.411201 -19.466656 -14.395597 29.410389 0.0 -8.77482 -0.0 15.598184 -17.948294 6.169292 -0.609775 -1.795653 -3.889328 -4.80709 -11.046811 -2.93785 2e-06 -20.976019 2e-06 -5.019974 -25.033558 -4.031878 6e-06 -0.0 1e-06 -10.634533 -5.686971 -3.565585 10.573271 -17.922949 -3.113902 3e-06 -13.821206 2e-06 -0.501781 -31.181501 -4.027014 -11.029355 -59.269363 7.087533 -13.982713 -7.150197 -2.87504 13.77273 -8.401491 -3.218242 0.34773 -34.211552 0.771659 -0.963031 -17.73337 2.621022 1e-06 0.0 -1e-06 -17.346415 -20.095215 -4.201779 21.757555 -1.638374 3.866426 0.0 -6.338822 2e-06 -1.69759 -22.591745 -6.194006 -1e-06 -2e-06 -1e-06 91.98024 -87.316277 114.89328 76.330032 -46.857414 -14.984822 23.446236 -0.002019 0.190849 3.333529 1.68385 8.72247 22.182108 -20.375896 49.933327 -16.701811 -16.743526 28.47654 -2e-06 -12.690598 -0.0 15.837532 -17.859859 3.120374 -0.10592 -1.513857 -4.275884 -5.03904 -5.612871 -2.953556 4e-06 -11.020524 -4e-06 -6.111297 -15.89533 -3.840469 1e-06 -0.0 -2e-06 -10.283369 -5.680288 -4.341838 11.028292 -11.302404 -2.372634 -1.384266 -14.238579 -6.32012 -0.625436 -26.924187 -3.827604 -4.640398 -50.34071 -3.286341 -13.708522 -7.363476 -3.72094 18.141148 -14.052737 -3.242676 6e-06 -18.78727 -1e-06 -0.429713 -8.456043 2.555503 2e-06 -0.0 0.0 -15.923534 -20.094482 -5.473584 30.419207 -7.190823 1.735922 2e-06 -8.162925 -1e-06 -1.861903 -22.861467 -6.16794 0.0 -5e-06 -1e-06 164.2686 2.344633 -10.818775 9.6351 0.023742 -0.538106 -60.000317 -7.31997 -6.868262 -7.095296 1.359406 2.15184 -0.999999 -0.0 -0.0 19.073586 1.415624 -3.723117 10.521592 0.111777 -0.311574 -85.832458 1.413824 -6.418902 -7.974335 0.862482 1.729594 -1.000002 -0.0 0.0 
